<svg xmlns="http://www.w3.org/2000/svg" viewBox="0 0 313.5 115.7">
	<path d="M10.4 115.7c-2.4 0-5-1.4-7.8-4.3-2.7-2.7-2.8-5.3-2.4-7.1.9-4.3 5.8-8.7 15.3-13.7.1-5.8-.1-13.2-.8-22.6-1.5-20.4-4.6-40.3-4.6-40.5l-.2-1.3L51.6 0 93 26.1v6.4h-4v-4.2L51.6 4.7 14.3 28.2c.7 4.8 3.1 22 4.4 39.5.6 8.4.9 15.2.9 20.9 5.9-2.8 13.1-5.8 21.9-9l1.4 3.8c-10.1 3.7-17.7 6.9-23.3 9.7-.5 16.5-3.8 20.5-6.6 21.9-.9.4-1.7.7-2.6.7zm5-20.4c-8.1 4.5-10.8 7.7-11.3 9.9-.2.7-.2 1.9 1.3 3.4 1.5 1.4 4.1 3.8 5.7 2.9 1.1-.6 3.6-3.2 4.3-16.2z" fill="#00c0f2"/>
	<path d="M127.2 46.7l.2 3.8c-1.8-1.6-3.5-2.6-6.2-2.6-5.1 0-10 4.7-10 12.4 0 7.8 3.8 12.3 9.7 12.3 2.5 0 4.9-1.4 6.7-3.1h.2l.4 2.5h4.6V38.1h-5.5v8.6zm0 18.7c-1.6 1.8-3.1 2.6-4.9 2.6-3.4 0-5.3-2.7-5.3-7.8 0-4.9 2.4-7.8 5.5-7.8 1.6 0 3.2.5 4.8 2v11zM103.6 38c-2 0-3.4 1.3-3.4 3.2 0 1.8 1.4 3.1 3.4 3.1s3.4-1.3 3.4-3.1c0-1.9-1.4-3.2-3.4-3.2zm-2.8 34h5.5V48.4h-5.5V72zM72.5 47.9c-5.9 0-11.2 4.5-11.2 12.4 0 7.8 5.3 12.3 11.2 12.3 5.9 0 11.2-4.5 11.2-12.3.1-7.9-5.3-12.4-11.2-12.4zm0 20.2C69 68.1 67 65 67 60.3c0-4.8 2.1-7.9 5.5-7.9 3.5 0 5.6 3.1 5.6 7.9 0 4.6-2.1 7.8-5.6 7.8zm22.8 0c-.6 0-1.2-.5-1.2-1.8V38.1h-5.5v27.8c0 4.1 1.4 6.6 5.4 6.6 1.3 0 2.3-.2 2.9-.5l-.7-4c-.5.1-.6.1-.9.1zM49.5 47.9c-3.2 0-5.6 1.7-7.5 3.6l.2-4.6v-8.7h-5.5V72h5.5V55.5c2-1.9 3.3-2.9 5.4-2.9 2.6 0 3.7 1.4 3.7 5.3V72h5.5V57.2c0-5.9-2.3-9.3-7.3-9.3zm211.9.2c-2.8 0-5.2 1.8-7.7 4.5-1-2.8-2.9-4.5-6.4-4.5-2.8 0-5.2 1.7-7.2 3.9h-.1l-.3-3.4h-3.3V72h3.9V55.1c2.2-2.4 4.1-3.6 5.9-3.6 3 0 4.4 1.9 4.4 6.2V72h3.9V55.1c2.2-2.4 4-3.6 5.9-3.6 2.9 0 4.3 1.9 4.3 6.2V72h3.9V57.2c-.1-5.9-2.4-9.1-7.2-9.1zm22.8 0c-5.3 0-10.5 4.7-10.5 12.3 0 7.6 4.9 12.2 11.2 12.2 3.2 0 5.7-1.1 7.7-2.4l-1.4-2.6c-1.7 1.1-3.6 1.8-5.8 1.8-4.5 0-7.5-3.2-7.8-8.2h15.7c.1-.6.1-1.3.1-2.2.1-6.6-3.3-10.9-9.2-10.9zm-6.6 10.5c.5-4.7 3.5-7.4 6.7-7.4 3.6 0 5.8 2.6 5.8 7.4h-12.5zm28.8 0c-2.6-1-5.2-1.9-5.2-4 0-1.8 1.3-3.4 4.3-3.4 2.1 0 3.7.9 5.3 2.1l1.9-2.5c-1.8-1.4-4.3-2.6-7.2-2.6-5 0-8 2.9-8 6.6 0 3.9 3.6 5.5 7 6.7 2.5 1 5.3 2 5.3 4.4 0 2-1.5 3.6-4.6 3.6-2.8 0-4.8-1.2-6.9-2.8l-2 2.6c2.2 1.8 5.4 3.2 8.7 3.2 5.5 0 8.5-3.2 8.5-7 0-4.3-3.7-5.7-7.1-6.9zm-86.2-10.5c-5.7 0-10.8 4.5-10.8 12.3 0 7.7 5.1 12.2 10.8 12.2 5.7 0 10.8-4.5 10.8-12.2 0-7.8-5.1-12.3-10.8-12.3zm0 21.2c-4 0-6.7-3.6-6.7-8.9 0-5.4 2.7-9 6.7-9s6.7 3.6 6.7 9c0 5.3-2.7 8.9-6.7 8.9zm-71.9-21.4c-3.7 0-7.1 1.4-9.6 3.1l2 3.7c2.1-1.2 4.3-2.3 6.6-2.3 3.2 0 4.2 2.1 4.3 4.6-9.6 1.1-13.9 3.7-13.9 8.7 0 4.1 2.9 6.9 7 6.9 2.8 0 5.2-1.4 7.3-3.2h.1l.4 2.6h4.5V58c.1-6.5-2.8-10.1-8.7-10.1zm3.3 17.8c-1.7 1.6-3.2 2.6-5.1 2.6-2 0-3.4-.9-3.4-3 0-2.4 2.1-4 8.5-4.8v5.2zm21.5-5.7c-.6 2.1-1.2 4.5-1.8 6.6h-.2c-.7-2.2-1.4-4.6-2.1-6.6l-4-11.6h-5.6l9.3 23.3-.4 1.5c-.8 2.4-2.2 4-4.7 4-.6 0-1.2-.2-1.7-.3l-1 4.3c.9.3 1.8.5 3.1.5 5.1 0 7.6-3.3 9.6-8.6l8.5-24.6h-5.3L173.1 60zm24.1-11.9c-3.2 0-5.6 1.7-7.8 3.8l.1-4.8v-9.3h-3.9V72h3.9V55.1c2.4-2.4 4-3.6 6.4-3.6 3.1 0 4.4 1.9 4.4 6.2V72h3.9V57.2c.1-5.9-2.1-9.1-7-9.1z" fill="#333"/>
</svg>